<?xml version="1.0" encoding="utf-8"?>
<!-- Generator: Adobe Illustrator 24.1.2, SVG Export Plug-In . SVG Version: 6.00 Build 0)  -->
<svg version="1.1" id="Capa_1" xmlns="http://www.w3.org/2000/svg" xmlns:xlink="http://www.w3.org/1999/xlink" x="0px" y="0px"
	 viewBox="0 0 514.1 250.6" style="enable-background:new 0 0 514.1 250.6;" xml:space="preserve">
<g>
	<g>
		<path d="M507.4,111.2C507.4,111.1,507.4,111.1,507.4,111.2L402.9,7.1c-7.8-7.8-20.5-7.8-28.3,0.1c-7.8,7.8-7.8,20.5,0.1,28.3
			l70.2,69.8H21.3c-11,0-20,9-20,20c0,11,9,20,20,20h423.6l-70.2,69.8c-7.8,7.8-7.9,20.5-0.1,28.3c7.8,7.8,20.5,7.9,28.3,0.1
			l104.5-104c0,0,0,0,0,0C515.3,131.6,515.2,118.9,507.4,111.2z"/>
	</g>
</g>
</svg>
