<?xml version="1.0" encoding="utf-8"?>
<!-- Generator: Adobe Illustrator 24.1.2, SVG Export Plug-In . SVG Version: 6.00 Build 0)  -->
<svg version="1.1" id="Layer_1" xmlns="http://www.w3.org/2000/svg" xmlns:xlink="http://www.w3.org/1999/xlink" x="0px" y="0px"
	 viewBox="0 0 163 163" style="enable-background:new 0 0 163 163;" xml:space="preserve">
<style type="text/css">
	.st0{fill:#FFFFFF;}
	.st1{fill:none;stroke:#FFFFFF;stroke-width:4;stroke-miterlimit:10;}
</style>
<g>
	<g>
		<path class="st0" d="M122.8,95.9c-0.5-2.4-2.4-4.2-4.8-4.7c-2.9-0.5-5.6,1-6.7,3.6c-0.2,0.5-0.7,0.8-1.3,0.8l-4.7,0l2.4-9.8
			c0.1-0.4,0.2-0.9,0.2-1.3c0-3.1-2.5-5.6-5.6-5.6H79.6l7.4-7.4l-0.8-1.1c-6-8-15.5-12.8-25.5-12.8c-5.5,0-10.7,1.4-15.2,3.9
			l-2.4-2.4c-2-2-5.4-2-7.3,0l-5.4,5.4c-1,1-1.5,2.3-1.5,3.7c0,1.4,0.5,2.7,1.5,3.7l2.4,2.4c-2.5,4.5-3.9,9.7-3.9,15.2
			c0,10,4.8,19.5,12.8,25.5l1.1,0.8L54,104.6c0.9,2.9,2.5,5.6,4.6,7.8h-2.4c-1.7,0-3,1.4-3,3v3c0,1.7,1.4,3,3,3h0.3l0.9,3.8
			c0.3,1.4,1.5,2.3,2.9,2.3h43.2c1.4,0,2.6-0.9,2.9-2.3l0.9-3.8h0.3c1.7,0,3-1.4,3-3v-3c0-1.7-1.4-3-3-3H93.5c1-0.6,2-1.2,2.9-1.9
			l7.3-5.7l6.2,0c0.6,0,1.1,0.3,1.3,0.8c1,2.3,3.2,3.8,5.6,3.8c0.4,0,0.8,0,1.1-0.1c2.4-0.4,4.3-2.3,4.8-4.7c0.3-1.5,0.1-3-0.7-4.3
			C122.9,99,123.1,97.4,122.8,95.9L122.8,95.9z M32.5,69.9c-0.4-0.4-0.6-0.9-0.6-1.5s0.2-1.1,0.6-1.5l5.4-5.4c0.8-0.8,2.2-0.8,3,0
			l1.8,1.8c-3.3,2.3-6.2,5.1-8.5,8.5L32.5,69.9z M42.4,111.9c-6.6-5.4-10.5-13.7-10.5-22.3c0-15.9,12.9-28.8,28.8-28.8
			c8.6,0,16.8,3.9,22.3,10.5L42.4,111.9z M61.1,110.6c-2.4-2.4-3.9-5.3-4.6-8.5l20-20h25.7c1.4,0,2.5,1.1,2.5,2.5
			c0,0.2,0,0.4-0.1,0.6l-2.5,10.2l-13.6-3.7c-1.2-0.3-2.4-0.5-3.6-0.5c-7.5,0-13.6,6.1-13.6,13.6c0,0.2,0,0.4,0,0.6
			c-0.3,0.3-0.5,0.7-0.8,1.1c-0.3,0-0.5-0.1-0.8-0.1c-2.5,0-4.6,2-4.6,4.6c0,0.5,0.1,1,0.3,1.5h-2.7L61.1,110.6z M75.9,112.4
			c-0.6,0-1.2-0.2-1.6-0.5c0.1-0.3,0.1-0.7,0.1-1c0-1.1-0.4-2.2-1.1-3c0.5-1,1.5-1.6,2.7-1.6c1.7,0,3,1.4,3,3
			C78.9,111.1,77.6,112.4,75.9,112.4z M68.3,110.9c0-0.8,0.7-1.5,1.5-1.5s1.5,0.7,1.5,1.5s-0.7,1.5-1.5,1.5S68.3,111.8,68.3,110.9z
			 M103.6,124.6H60.4l-0.8-3h44.7L103.6,124.6z M107.8,115.5l0,3H56.2v-3H107.8z M101.7,102.6l-7.2,5.6c-3.5,2.8-8,4.3-12.5,4.3
			h-0.9c0.5-0.9,0.8-1.9,0.8-3c0-3.3-2.7-6.1-6.1-6.1c-0.5,0-1,0.1-1.4,0.2c0.6-5.2,5.1-9.3,10.5-9.3c0.9,0,1.9,0.1,2.8,0.4l14,3.8
			V102.6z M119.8,104c-0.2,1.2-1.2,2.1-2.4,2.3c-1.5,0.3-2.8-0.5-3.4-1.8c-0.7-1.6-2.3-2.7-4.2-2.7l-5.2,0v-3l5.2,0
			c1.8,0,3.5-1.1,4.1-2.7c0.6-1.3,1.9-2.1,3.4-1.8c1.2,0.2,2.1,1.2,2.4,2.3c0.2,1-0.1,2-0.7,2.7l-0.9,1l0.9,1
			C119.8,102,120.1,103,119.8,104L119.8,104z"/>
		<path class="st0" d="M87,61.9l2.1-2.1l-2.7-2.7c-0.9-0.9-1.4-2.2-1.4-3.5c0-2.7,2.2-4.9,4.9-4.9h5.7v-3h-5.7c-4.4,0-8,3.6-8,8
			c0,2.1,0.8,4.1,2.3,5.6L87,61.9z"/>
		<path class="st0" d="M92.6,57.8c1.7,0,3,1.4,3,3c0,1.7-1.4,3-3,3v3c3.3,0,6.1-2.7,6.1-6.1c0-3.3-2.7-6.1-6.1-6.1V57.8z"/>
		<path class="st0" d="M107.8,51.1c0-2.9,1.4-5.6,3.9-7.2l-1.7-2.5c-3.3,2.2-5.2,5.8-5.2,9.8v0.6h3V51.1z"/>
		<path class="st0" d="M102.1,46.7l2.1-2.1l-1.5-1.5c-0.7-0.7-1.1-1.7-1.1-2.7c0-2.1,1.7-3.8,3.8-3.8h8.3c1.7,0,3,1.4,3,3h3
			c0-3.3-2.7-6.1-6.1-6.1h-8.3c-3.8,0-6.9,3.1-6.9,6.9c0,1.8,0.7,3.6,2,4.9L102.1,46.7z"/>
		<path class="st0" d="M117.4,45.7l-1,2.9l1,0.3c1.5,0.5,2.6,1.9,2.6,3.6c0,1.6-1,3-2.6,3.6l-10.1,3.4l1,2.9l5.5-1.8
			c0,0.3,0.1,0.6,0.1,0.8c0,3.3-2.5,6.2-5.8,6.7l-9.7,1.4c-3.3,0.5-5.8,3.4-5.8,6.7h3c0-1.8,1.4-3.4,3.2-3.7l9.7-1.4
			c4.8-0.7,8.4-4.8,8.4-9.7c0-0.6-0.1-1.2-0.2-1.8l1.6-0.5c2.8-0.9,4.6-3.5,4.6-6.4s-1.9-5.5-4.6-6.4L117.4,45.7z"/>
	</g>
	<circle class="st1" cx="81.4" cy="81.2" r="78.9"/>
</g>
</svg>
