<svg xmlns="http://www.w3.org/2000/svg" viewBox="0 0 409.64 409.64"><g id="bcd91ff8-bddc-42a2-91d7-ae8615d02f3c" data-name="Layer 2"><g id="aa371bf9-e3f3-493e-878b-01f3e94e6d0d" data-name="Layer 1"><path d="M386.43,409.64h-48.8c-6.2-2.14-11.76-5.22-14.42-11.58-1.12-2.66-2.63-3.11-5.17-2.83-11.38,1.28-22.77,2.43-34.16,3.61-24.77,2.56-49.52,5.19-74.31,7.53a14.29,14.29,0,0,1-8.2-2c-28.42-17.31-56.7-34.85-85.08-52.23a12.16,12.16,0,0,1-6-8.85q-6.72-35.49-13.83-70.9a11,11,0,0,0-3.25-5.57c-6.9-6.27-14.12-12.19-21-18.46a10.14,10.14,0,0,0-7.51-2.71c-18.51.1-37,0-55.55.12-4.19,0-7.22-1.24-9.16-5v-13.6a12.57,12.57,0,0,0,.73-1.8c3.14-13.12,11-21.94,24-25.91,2.46-.75,2.6-2.06,2.59-4.06,0-15.86,0-31.72,0-47.58,0-16.79,0-33.58,0-50.37.09-36.44,26.56-63.09,63-63.28,25.06-.13,50.11,0,75.17,0h5c.26-1.42.58-2.56.67-3.72a32.53,32.53,0,0,1,7.35-17.78C184.18,5.38,192.06,1.94,200.82,0h8a7.4,7.4,0,0,0,1.44.59C221.51,2.56,230,8.52,235,18.75c2.27,4.68,3.22,10,4.89,15.44h4.33c24.65,0,49.31-.09,74,.07a72.8,72.8,0,0,1,16.24,1.56c29,6.91,47.82,30.89,47.94,60.88q.18,49.17,0,98.35c0,2.7.9,3.63,3.33,4.81a70.48,70.48,0,0,1,14.1,8.63c5.77,4.72,7.89,11.79,9.89,18.73v13.6c-1.94,3.72-5,5-9.17,5-26.8-.13-53.6,0-80.39-.14-3.08,0-4.48,1.17-6.3,3.53-6.21,8.09-7.38,16.67-4,26.09.48,1.34.78,3,1.76,3.85,3.22,2.74,6.72,5.16,10.45,8,4.67-11.43,13.6-14.43,24.66-14.11s22.4,0,33.6.09c14.11.08,22.48,8.29,22.53,22.33.09,30.66,0,61.33,0,92,0,5.34-.71,10.71-4.68,14.43C394.73,405,390.36,407.06,386.43,409.64ZM368.49,197.71c.1-1.28.24-2.32.24-3.36q0-49,0-98a50.66,50.66,0,0,0-1.13-10.71c-5.09-23-24-37.79-48.38-37.8q-114.37-.07-228.75,0a52.25,52.25,0,0,0-8.76.52C57.59,52.51,41.11,71.58,41,96c-.21,32.79-.05,65.58,0,98.37,0,1,.15,2.07.24,3.27H307.24c0-6.69-.12-13.08,0-19.45.13-5.58,4.81-8.9,9.45-6.84,3,1.34,4.15,3.93,4.14,7.14,0,6.36,0,12.72,0,19.21Zm-68.64,48c-8.93,0-17.42-.07-25.91.09a4.62,4.62,0,0,0-3,2.06c-2.88,4.16-5.74,8.36-8.26,12.74a14.69,14.69,0,0,0-2,6.62q-.46,19.2-.42,38.39a10.74,10.74,0,0,1-4.79,9.46c-8.16,6-16.29,12.05-24.22,18.35-3.44,2.74-6.76,3.05-10.76,1.72Q195.9,326.92,171.2,319a13.25,13.25,0,0,1-8.37-7.29c-10.41-20.84-21.08-41.55-31.45-62.41-1.43-2.88-3.06-3.74-6.1-3.62-6.12.23-12.26.06-18.39.06H90c5.51,4.83,10.33,8.6,14.56,12.94A17.93,17.93,0,0,1,109.3,267c4.8,23.34,9.31,46.74,13.73,70.15a7.47,7.47,0,0,0,3.87,5.54c26.23,16.08,52.38,32.3,78.65,48.31a12.15,12.15,0,0,0,7.06,1.49c27.45-2.7,54.87-5.6,82.3-8.46,8.57-.9,17.14-1.82,25.94-2.76v-4.73q0-28.8,0-57.6c0-5.18,1.4-11.15-.69-15.32s-7.53-7-11.95-9.63c-7.65-4.58-11.18-11-12.84-19.77-1.83-9.67-3-18.54,3.82-26.66A8.21,8.21,0,0,0,299.85,245.72Zm-286-13.9H397.17c-2.23-4.73-3.57-9.11-6.1-12.64-4.53-6.28-11.44-7.55-18.84-7.55q-167.37.09-334.74.05c-1.6,0-3.2,0-4.79.18C21.9,212.78,14.47,220.52,13.81,231.82Zm131.57,14.05a7,7,0,0,0,.29,1.53c9.54,18.88,19.06,37.77,28.73,56.58a6.54,6.54,0,0,0,3.6,2.67c14.37,4.83,28.76,9.6,43.21,14.17a6.44,6.44,0,0,0,4.92-.85c6-4.23,11.66-8.87,17.62-13.12,2.24-1.6,2.88-3.39,2.88-6,0-12,0-24,.45-36,.12-3.26,1.44-6.63,2.85-9.64,1.48-3.16,3.74-6,6-9.37Zm243.72,95.8c0-15.33,0-30.65,0-46,0-6.59-2.32-8.95-8.86-9q-18.39-.09-36.77,0c-6.49,0-9,2.53-9,9q0,45.56,0,91.12c0,6.76,2.41,9.17,9.15,9.18q18,0,36,0c7.29,0,9.47-2.2,9.48-9.58Q389.13,364,389.1,341.67Zm-164-307.73c-.11-7.68-3.4-13.31-9.56-17.11-7.24-4.47-14.78-4.32-21.87.27a19,19,0,0,0-9.09,16.84Z"/><path d="M108.92,102.41c-6.25,0-12.51,0-18.76,0-5.07,0-8.14-2.68-8.13-6.82s3.07-6.75,8.16-6.77q19.16-.08,38.32,0c4.83,0,7.82,2.61,7.94,6.6s-3,6.93-8,7C122,102.46,115.44,102.41,108.92,102.41Z"/><path d="M160.3,88.89a32,32,0,0,1,4.38,0,6.59,6.59,0,0,1,5.85,6.53,6.46,6.46,0,0,1-5.58,6.72,39.21,39.21,0,0,1-8,.16c-4.13-.27-6.78-3.21-6.64-7,.13-3.65,2.73-6.18,6.76-6.5,1.06-.08,2.13,0,3.19,0Z"/><path d="M379.22,371.51a11.19,11.19,0,0,1-22.38-.36,11.19,11.19,0,1,1,22.38.36Z"/></g></g></svg>