<?xml version="1.0" encoding="utf-8"?>
<!-- Generator: Adobe Illustrator 24.1.2, SVG Export Plug-In . SVG Version: 6.00 Build 0)  -->
<svg version="1.1" id="Layer_1" xmlns="http://www.w3.org/2000/svg" xmlns:xlink="http://www.w3.org/1999/xlink" x="0px" y="0px"
	 viewBox="0 0 37 45" style="enable-background:new 0 0 37 45;" xml:space="preserve">
<g>
	<path d="M22.6,0c1,0.3,1.5,1.1,1.7,2.1c0.2,0.9,0.5,1.8,0.8,2.7c0.2,0,0.3,0,0.5,0c2.4,0,4.7,0,7.1,0c1.4,0,2.3,0.8,2.3,2.3
		c0,0.4,0,0.7,0,1.2c0.2,0,0.4,0,0.6,0c0.5,0,0.8,0.3,0.8,0.7c0,0.4-0.3,0.7-0.8,0.7c-0.3,0-0.7,0-1,0c-0.2,0-0.3,0.1-0.4,0.3
		c-0.2,2.6-0.4,5.1-0.6,7.7c-0.2,3.1-0.5,6.2-0.7,9.3c-0.2,2.7-0.4,5.3-0.6,8c-0.2,2-0.3,4.1-0.5,6.1c-0.2,1.7-1.6,3-3.4,3.1
		c-1.4,0-2.8,0-4.3,0c-5.1,0-10.1,0-15.2,0c-2.2,0-3.6-1.2-3.8-3.4c-0.2-2.3-0.4-4.5-0.5-6.8c-0.2-3.1-0.5-6.2-0.7-9.3
		c-0.2-3-0.5-6.1-0.7-9.1c-0.1-1.8-0.3-3.7-0.5-5.5c0-0.1-0.2-0.3-0.3-0.3c-0.4,0-0.7,0-1.1,0C0.7,9.7,0.4,9.4,0.4,9
		c0-0.4,0.3-0.7,0.8-0.7c0.2,0,0.4,0,0.6,0c0-0.4,0-0.8,0-1.3c0-1.3,0.9-2.2,2.2-2.2c2.4,0,4.7,0,7.1,0c0.2,0,0.3,0,0.5,0
		c0.3-0.9,0.6-1.8,0.8-2.7c0.2-1,0.7-1.8,1.7-2.1C17,0,19.8,0,22.6,0z M4,9.7c0.1,0.9,0.2,1.9,0.2,2.8c0.3,4.1,0.7,8.3,1,12.4
		C5.6,30.1,6,35.3,6.4,40.5c0.1,1.5,0.9,2.2,2.4,2.2c6.4,0,12.7,0,19.1,0c0.1,0,0.3,0,0.4,0c1-0.1,1.8-0.8,1.9-1.9
		c0.1-0.8,0.1-1.5,0.2-2.3c0.2-2.7,0.4-5.3,0.6-8c0.2-3.1,0.5-6.1,0.7-9.2c0.2-2.7,0.4-5.5,0.7-8.2c0.1-1.1,0.2-2.3,0.3-3.5
		C23.2,9.7,13.6,9.7,4,9.7z M33.5,8.2c0-0.3,0-0.6,0-0.9c0-0.9-0.1-1-1.1-1c-9.4,0-18.8,0-28.2,0c-0.1,0-0.3,0-0.4,0
		c-0.3,0-0.6,0.2-0.6,0.5c0,0.5,0,0.9,0,1.4C13.3,8.2,23.4,8.2,33.5,8.2z M13.1,4.8c3.5,0,7,0,10.5,0c-0.3-0.9-0.5-1.8-0.8-2.7
		c-0.2-0.6-0.3-0.7-0.9-0.7c-1.1,0-2.1,0-3.2,0c-1.4,0-2.7,0-4.1,0c-0.4,0-0.7,0.1-0.8,0.5C13.7,2.9,13.4,3.8,13.1,4.8z"/>
	<path d="M10.7,26.5c-0.2-4.2-0.4-8.3-0.7-12.5c0-0.3,0-0.6,0-0.9c0-0.4,0.3-0.7,0.7-0.7c0.4,0,0.7,0.2,0.7,0.6
		c0.1,0.7,0.1,1.5,0.1,2.2c0.2,4.2,0.4,8.4,0.6,12.6c0.2,3.9,0.4,7.9,0.6,11.8c0,0.2,0,0.3,0,0.5c-0.1,0.3-0.4,0.6-0.7,0.5
		c-0.4,0-0.6-0.3-0.7-0.7c-0.1-0.8-0.1-1.7-0.1-2.5C11.1,33.8,10.9,30.1,10.7,26.5z"/>
	<path d="M26,26.5c-0.2,4.4-0.5,8.9-0.7,13.3c0,0.5-0.2,0.8-0.6,0.8c-0.5,0.1-0.8-0.3-0.8-0.8c0-0.9,0.1-1.7,0.1-2.6
		c0.3-5.3,0.6-10.6,0.8-15.9c0.1-2.5,0.3-5,0.4-7.6c0-0.3,0-0.5,0.1-0.8c0.1-0.4,0.4-0.6,0.7-0.6c0.4,0,0.7,0.3,0.7,0.7
		c0,0.8-0.1,1.7-0.1,2.5C26.4,19.3,26.2,22.9,26,26.5C26,26.5,26,26.5,26,26.5z"/>
	<path d="M17.7,26.5c0-4.3,0-8.6,0-12.9c0-0.1,0-0.3,0-0.4c0-0.5,0.3-0.8,0.7-0.8c0.4,0,0.7,0.3,0.7,0.8c0,0.1,0,0.2,0,0.3
		c0,8.7,0,17.3,0,26c0,0.2,0,0.3,0,0.5c0,0.4-0.3,0.6-0.7,0.6c-0.4,0-0.6-0.2-0.7-0.6c0-0.2,0-0.3,0-0.5
		C17.7,35.2,17.7,30.9,17.7,26.5z"/>
</g>
</svg>
