<svg xmlns="http://www.w3.org/2000/svg" viewBox="0 0 383.95 264.72"><g id="a9e4c99f-5a9c-42fa-a23f-29144c0379f3" data-name="Layer 2"><g id="ae602f53-596a-450c-b2a6-8dc33ba56585" data-name="Layer 1"><path d="M0,10.14C2.75,2.67,8.14,0,16,0c28.73.25,57.48.37,86.22,0,11.42-.16,16.6,6.21,16.45,16.29-.4,28-.14,56-.14,84v5.08c6.66-6.43,14.24-5.81,21.71-5.79,14.88,0,29.75-.09,44.62.06,8.51.08,14.94,4,18.32,11.9,3.24,7.61,1.83,14.73-3.67,20.88-3.67,4.1-8.5,6-14.14,6.25a18,18,0,0,0-.38,2.57c0,8-.12,16,0,24,.21,12.11,8.52,20.47,20.62,20.56,17.49.13,35,0,53.09,0V125.12c0-13,2.13-16.73,13.54-23.49-.4-.92-.76-1.92-1.24-2.87-4.56-9.16-9.25-18.26-13.67-27.48-1.9-4-4.59-6-9.08-5.69-3.11.2-6.24.11-9.37,0-4.06-.13-6.55-2.51-6.59-6.14s2.37-6.11,6.47-6.27,8-.15,12,.05c7.78.4,13.43,4.22,17,11.14,2,4,4,8,6.29,12.48,3.55-5.36,8-9.41,14.23-10a117.53,117.53,0,0,1,17.2-.26c3.6.18,5.49,2.9,5.53,6.44.1,8.63.15,17.25,0,25.87-.09,4.27-2.64,6.43-7.08,6.49-5,.06-9.95,0-15.6,0q11.58,23.16,22.48,45c7.64-1.42,14.89-3.26,22.26-4,11.5-1.23,22.63,1,33.26,5.52,3.74,1.6,5.19,4.84,3.92,8.17s-4.86,4.76-8.75,3.19c-13.72-5.52-27.62-6.32-41.76-1.83-.81.26-1.6.62-2.86,1.11l6.23,12.43c10.47-3,20.69-3.38,30.72.56,16.14,6.32,25.9,18.11,29.44,35.07a17.06,17.06,0,0,0,.72,2v12a19.89,19.89,0,0,0-.76,2.42c-4.63,24.61-28.86,41.52-53,36.94-25.66-4.86-42.39-28.76-37.56-53.8,2.38-12.32,8.91-22.09,19.28-29.59L305.65,168c-1.32.88-2.38,1.51-3.36,2.25C287.19,181.78,279,197,277.89,216c-.44,7.55-1.84,8.85-9.32,8.85q-56.77,0-113.55-.05c-2.7,0-3.82.62-4.4,3.5-4.65,23-26,38.28-50.16,36.09-21.86-2-40-21.45-40.57-43.91-.13-5,.73-10.07,1.15-15.27-.29,0-.77-.14-1.25-.17-14.27-.81-21.45-10.84-17-24.41,5.31-16.34,15.64-29.08,29.32-39.26,1-.71,1.89-1.44,3.67-2.81H71.19c-9.5,0-19,0-28.49,0a15.66,15.66,0,0,1-13-6.35c-3-3.84-3.79-8.28-3.17-13.42-3.3,0-6.41-.22-9.48,0-8,.66-13.85-2.1-17.1-9.65Zm106,95.93V39.46H12.77v66.61Zm-1.43,86.35v-.08q21.93,0,43.86,0c6.47,0,9.74-3.08,9.64-9.62a55.56,55.56,0,0,0-1.39-11.12c-4.25-19.17-16.8-31.27-34.55-32.76A54.15,54.15,0,0,0,105.73,140c-24.92,5.71-42.39,20.31-51.19,44.59-1.94,5.36.08,7.81,5.76,7.82Q82.41,192.45,104.52,192.42Zm266.91,26.15a33.51,33.51,0,1,0-33.56,33.68A33.66,33.66,0,0,0,371.43,218.57Zm-103.28-20.7a33.57,33.57,0,0,1-3.81.44c-20.12,0-40.24.25-60.35-.11a31.41,31.41,0,0,1-30.75-27.12c-1.23-9.21-.57-18.68-.76-28,0-1.43,0-2.87,0-4.32h-20c1,1.2,1.72,2,2.42,2.81a60.51,60.51,0,0,1,15.39,43.73c-.45,10.42-7.67,17.93-18,19.34a17.91,17.91,0,0,0-2.31.64c1.3,7.24,1.3,7.24,8.2,7.24H265.32Zm-148,6.93c7.07,11.81,6.43,21.29-1.47,28.35a19.44,19.44,0,0,1-31.89-10.3c-1.54-6.55.54-12.21,4.74-17.92-4.6,0-8.58.26-12.5-.08-3.33-.29-4.58,1.15-5.44,4.06a33.68,33.68,0,0,0,38.86,42.63c19.56-3.75,31.72-24.85,25-43.61-.44-1.24-1.9-2.91-3-3C129.86,204.61,125.24,204.8,120.11,204.8ZM12.7,26.37h93.2V12.71H12.7Zm287.35,130.4L278.17,113c-4.56,1.49-7,4-7,8.83.1,21.34,0,42.68.06,64a19,19,0,0,0,.55,2.88A74.75,74.75,0,0,1,300.05,156.77ZM159,112.1c-8.49,0-17,0-25.47,0-5.14,0-8.33,2.78-8.28,7.07,0,4.12,3.17,7,8.06,7q25.47.1,50.93,0c5.06,0,8.24-3.09,8.08-7.37s-3.23-6.72-8.23-6.73C175.72,112.08,167.36,112.1,159,112.1Zm-46.53,6.68h-3.76l-39,0c-8.87,0-17.73,0-26.6,0-2.3,0-4,.81-4.17,3.29-.21,2.64,1.42,3.83,3.81,4.16a20.79,20.79,0,0,0,2.62.06h64.83c1.16,0,2.33-.14,3.57-.22C113.33,123.47,112.93,121.28,112.47,118.78ZM298.35,78.92c-4.92.42-10.38-1.71-12.93,3.9a8.69,8.69,0,0,0,.64,7.21c3,4.49,7.88,2.63,12.29,2.8ZM105.62,225.55a6.94,6.94,0,1,0-6.82-7.23A6.78,6.78,0,0,0,105.62,225.55Z"/><path d="M318.53,218.49a19.45,19.45,0,0,1,38.89.06A19.6,19.6,0,0,1,337.9,238.1,19.4,19.4,0,0,1,318.53,218.49Zm19.29-6.82a6.94,6.94,0,1,0,.2,13.88,6.94,6.94,0,1,0-.2-13.88Z"/></g></g></svg>