<?xml version="1.0" encoding="utf-8"?>
<!-- Generator: Adobe Illustrator 24.1.2, SVG Export Plug-In . SVG Version: 6.00 Build 0)  -->
<svg version="1.1" id="Layer_1" xmlns="http://www.w3.org/2000/svg" xmlns:xlink="http://www.w3.org/1999/xlink" x="0px" y="0px"
	 viewBox="0 0 77.6 79" style="enable-background:new 0 0 77.6 79;" xml:space="preserve">
<g>
	<path d="M21,0.3c1.3,0.5,1.7,1.4,1.7,2.7c0,5.7,0,11.4,0,17c0,1.9-0.8,2.7-2.7,2.7c-5.7,0-11.4,0-17.1,0c-1.8,0-2.7-0.8-2.7-2.7
		c0-5.7,0-11.3,0-17c0-1.3,0.4-2.3,1.7-2.9C8.2,0.3,14.6,0.3,21,0.3z M18.5,4.8c-4.7,0-9.3,0-13.9,0c0,4.7,0,9.3,0,13.9
		c4.6,0,9.2,0,13.9,0C18.5,14,18.5,9.4,18.5,4.8z"/>
	<path d="M75.6,0.3c1.3,0.5,1.7,1.5,1.7,2.9c0,5.6,0,11.2,0,16.8c0,2-0.8,2.8-2.8,2.8c-5.7,0-11.3,0-17,0c-1.9,0-2.7-0.8-2.7-2.7
		c0-5.7,0-11.4,0-17c0-1.3,0.5-2.3,1.7-2.7C62.8,0.3,69.2,0.3,75.6,0.3z M73.1,18.6c0-4.6,0-9.2,0-13.9c-4.6,0-9.3,0-13.9,0
		c0,4.6,0,9.2,0,13.9C63.8,18.6,68.4,18.6,73.1,18.6z"/>
	<path d="M48.4,0.3C49.6,0.9,50,1.9,50,3.2c0,5.6,0,11.2,0,16.8c0,2-0.8,2.8-2.8,2.8c-5.7,0-11.3,0-17,0c-1.9,0-2.7-0.8-2.7-2.7
		c0-5.6,0-11.3,0-16.9c0-1.3,0.4-2.3,1.6-2.9C35.5,0.3,41.9,0.3,48.4,0.3z M45.8,4.8c-4.7,0-9.3,0-13.9,0c0,4.7,0,9.3,0,13.8
		c4.7,0,9.3,0,13.9,0C45.8,14,45.8,9.4,45.8,4.8z"/>
	<path d="M11.5,27.8c2.9,0,5.7,0,8.6,0c1.8,0,2.6,0.8,2.6,2.6c0,5.8,0,11.5,0,17.3c0,1.8-0.8,2.6-2.6,2.6c-5.8,0-11.6,0-17.4,0
		c-1.7,0-2.6-0.9-2.6-2.6c0-5.8,0-11.5,0-17.3c0-1.8,0.8-2.6,2.6-2.6C5.7,27.8,8.6,27.8,11.5,27.8z M4.6,32.2c0,4.6,0,9.1,0,13.7
		c4.7,0,9.2,0,13.9,0c0-4.6,0-9.1,0-13.7C13.8,32.2,9.2,32.2,4.6,32.2z"/>
	<path d="M11.4,78.7c-2.9,0-5.8,0-8.6,0c-1.7,0-2.6-0.8-2.6-2.6c0-5.8,0-11.5,0-17.3c0-1.8,0.9-2.6,2.6-2.6c5.7,0,11.5,0,17.2,0
		c1.8,0,2.6,0.8,2.6,2.6c0,5.8,0,11.5,0,17.3c0,1.8-0.8,2.6-2.6,2.6C17.2,78.7,14.3,78.7,11.4,78.7z M18.5,74.5c0-4.7,0-9.3,0-13.9
		c-4.6,0-9.2,0-13.9,0c0,4.6,0,9.2,0,13.9C9.2,74.5,13.8,74.5,18.5,74.5z"/>
	<path d="M54.8,39.1c0-2.9,0-5.8,0-8.7c0-1.7,0.8-2.5,2.5-2.5c5.8,0,11.6,0,17.4,0c1.7,0,2.5,0.8,2.5,2.5c0,5.8,0,11.6,0,17.4
		c0,1.7-0.9,2.5-2.6,2.5c-5.8,0-11.6,0-17.4,0c-1.8,0-2.6-0.8-2.6-2.6C54.8,44.8,54.8,42,54.8,39.1z M59.2,45.9c4.7,0,9.3,0,13.9,0
		c0-4.6,0-9.1,0-13.7c-4.7,0-9.3,0-13.9,0C59.2,36.8,59.2,41.3,59.2,45.9z"/>
	<path d="M38.8,27.8c2.9,0,5.7,0,8.6,0c1.8,0,2.6,0.8,2.6,2.6c0,5.8,0,11.6,0,17.4c0,1.7-0.8,2.6-2.6,2.6c-5.8,0-11.5,0-17.3,0
		c-1.8,0-2.6-0.8-2.6-2.6c0-5.8,0-11.6,0-17.4c0-1.8,0.8-2.5,2.6-2.5C33,27.8,35.9,27.8,38.8,27.8z M45.8,32.2c-4.7,0-9.3,0-13.9,0
		c0,4.6,0,9.1,0,13.7c4.6,0,9.2,0,13.9,0C45.8,41.3,45.8,36.8,45.8,32.2z"/>
	<path d="M54.8,67.4c0-2.9,0-5.8,0-8.7c0-1.7,0.8-2.5,2.5-2.5c5.8,0,11.6,0,17.4,0c1.7,0,2.6,0.9,2.6,2.6c0,5.8,0,11.5,0,17.3
		c0,1.8-0.8,2.6-2.6,2.6c-5.7,0-11.5,0-17.2,0c-1.8,0-2.6-0.8-2.6-2.7C54.8,73.2,54.8,70.3,54.8,67.4z M59.2,60.6
		c0,4.7,0,9.3,0,13.9c4.7,0,9.3,0,13.9,0c0-4.6,0-9.2,0-13.9C68.4,60.6,63.8,60.6,59.2,60.6z"/>
	<path d="M38.6,78.7c-2.9,0-5.8,0-8.6,0c-1.7,0-2.5-0.8-2.5-2.5c0-5.8,0-11.7,0-17.5c0-1.6,0.9-2.5,2.5-2.5c5.8,0,11.6,0,17.4,0
		c1.6,0,2.5,0.8,2.5,2.5c0,5.8,0,11.7,0,17.5c0,1.7-0.9,2.5-2.5,2.5C44.5,78.7,41.6,78.7,38.6,78.7z M31.9,74.5c4.7,0,9.3,0,13.9,0
		c0-4.6,0-9.2,0-13.9c-4.6,0-9.2,0-13.9,0C31.9,65.3,31.9,69.8,31.9,74.5z"/>
</g>
</svg>
