<?xml version="1.0" encoding="utf-8"?>
<!-- Generator: Adobe Illustrator 24.1.2, SVG Export Plug-In . SVG Version: 6.00 Build 0)  -->
<svg version="1.1" id="Layer_1" xmlns="http://www.w3.org/2000/svg" xmlns:xlink="http://www.w3.org/1999/xlink" x="0px" y="0px"
	 viewBox="0 0 140 140" style="enable-background:new 0 0 140 140;" xml:space="preserve">
<style type="text/css">
	.st0{fill:#EECC7F;}
</style>
<g>
	<path class="st0" d="M109.5,39.3c5.1,0,9.6-4.1,9.6-9.6c0-5.1-4.1-9.6-9.6-9.6c-5.1,0-9.6,4.1-9.6,9.6
		C100.4,35.2,104.4,39.3,109.5,39.3z"/>
	<path class="st0" d="M38,139.2h63.9c20.8,0,37.5-16.7,37.5-37.5V37.8c0-20.8-16.7-37.5-37.5-37.5H38C17.2,0.2,0.5,17,0.5,37.8v63.9
		C0.5,122.5,17.2,139.2,38,139.2z M11.1,37.8c0-14.7,11.7-26.4,26.4-26.4h64.4c14.7,0,26.4,11.7,26.4,26.4v63.9
		c0,14.7-11.7,26.4-26.4,26.4H38c-14.7,0-26.4-11.7-26.4-26.4V37.8H11.1z"/>
	<path class="st0" d="M70,107.3c20.8,0,37.5-16.7,37.5-37.5S90.8,32.2,70,32.2S32.4,48.9,32.4,69.7l0,0
		C32.4,90.5,49.2,107.3,70,107.3z M70,43.4c14.7,0,26.4,11.7,26.4,26.4S84.7,96.1,70,96.1S43.6,84.4,43.6,69.7l0,0
		C43.1,55.5,55.2,43.4,70,43.4z"/>
</g>
</svg>
