<?xml version="1.0" encoding="utf-8"?>
<!-- Generator: Adobe Illustrator 24.1.2, SVG Export Plug-In . SVG Version: 6.00 Build 0)  -->
<svg version="1.1" id="Layer_1" xmlns="http://www.w3.org/2000/svg" xmlns:xlink="http://www.w3.org/1999/xlink" x="0px" y="0px"
	 viewBox="0 0 302.2 329.6" style="enable-background:new 0 0 302.2 329.6;" xml:space="preserve">
<style type="text/css">
	.st0{fill:#EECC7F;}
</style>
<path class="st0" d="M300.6,308.3c-0.7-3.3-2.3-6.3-4.5-8.8c-15.8-18.7-31.6-37.4-47.5-56.1l-17.4-20.5
	c28.1-31.5,39.2-68.7,32.8-110.5c-4.8-31.5-19.8-58.2-44.6-79.3C169.4-9.4,95.3-9.2,47.2,33.5C-3.7,78.7-13.7,151.6,23.4,206.8
	c21.1,31.4,50.5,50.6,87.4,57.2c33.1,5.9,65-0.6,94.8-19.3l3,3.7c5.4,6.5,10.7,13,16.1,19.4c12.2,14.5,24.5,29,36.8,43.5l8.6,10.1
	c4.7,5.6,9.6,7.3,13.8,7.3c2.6,0,5.1-0.6,7.5-1.8C298.4,323.7,302.3,316,300.6,308.3z M125.3,231.7c-54.2-4.5-93.7-50.8-89.8-105.4
	c3.9-51.1,46.3-90.7,97.6-91c2.8,0,5.5,0.1,8.3,0.4c54.1,4.4,94.4,51.9,90,106C226.9,195.9,179.4,236.2,125.3,231.7L125.3,231.7z"/>
</svg>
