<?xml version="1.0" encoding="utf-8"?>
<!-- Generator: Adobe Illustrator 24.1.2, SVG Export Plug-In . SVG Version: 6.00 Build 0)  -->
<svg version="1.1" id="Layer_1" xmlns="http://www.w3.org/2000/svg" xmlns:xlink="http://www.w3.org/1999/xlink" x="0px" y="0px"
	 viewBox="0 0 163 163" style="enable-background:new 0 0 163 163;" xml:space="preserve">
<style type="text/css">
	.st0{fill:#FFFFFF;}
	.st1{fill:none;stroke:#FFFFFF;stroke-width:4;stroke-miterlimit:10;}
</style>
<g>
	<g id="away-take-coffee-cup-Beverage">
		<path class="st0" d="M121.4,67.2h-1.2v-4.9c0-0.7-0.6-1.2-1.2-1.2h-2.8l-1-2.9c-0.2-0.5-0.6-0.8-1.2-0.8h-3.9l-4.8-7.8v-7.1
			c0-0.7-0.6-1.2-1.2-1.2H59.6c-0.7,0-1.2,0.6-1.2,1.2v7L48.7,64c-0.1,0.2-0.2,0.4-0.2,0.7v49.4c0,0.7,0.6,1.2,1.2,1.2h67.9
			c0.7,0,1.2-0.5,1.2-1.2l1.2-38.3h1.3c0.7,0,1.2-0.6,1.2-1.2v-6.2C122.6,67.7,122,67.2,121.4,67.2z M113.1,59.8l1,2.9
			c0.2,0.5,0.6,0.8,1.2,0.8h2.5v3.7H90.5v-3.7h14.8c0.3,0,0.6-0.1,0.9-0.4l3.3-3.3H113.1z M60.9,43.7h42v4.9h-42V43.7z M53.5,112.8
			l6.2-4.6l6.2,4.6H53.5z M68.3,111.6l-7.4-5.6V67.2h-2.5V106l-7.4,5.6V65.1L58.4,54v10.7h2.5V54l7.4,11.1V111.6z M62,51.1h41.4
			l4.3,7l-2.9,2.9H89.3c-0.7,0-1.2,0.6-1.2,1.2v1.2H70.2L62,51.1z M70.8,112.8V65.9H88v1.2h-1.2c-0.7,0-1.2,0.6-1.2,1.2v6.2
			c0,0.7,0.6,1.2,1.2,1.2h1.3l0.1,2.5H76.9c-0.7,0-1.2,0.6-1.2,1.2V98c0,0.7,0.6,1.2,1.2,1.2h11.9l0.4,13.6H70.8z M88.2,80.7l0.5,16
			H78.2v-16H88.2z M116.5,112.8H91.7l-0.2-7.4h25.2L116.5,112.8z M116.8,103H91.4l-0.5-17.3h26.5L116.8,103z M117.4,83.2H90.8
			l-0.2-7.4h27.1L117.4,83.2z M120.1,73.3H88v-3.7h32.1V73.3z"/>
		<rect x="80.6" y="83.2" class="st0" width="4.9" height="2.5"/>
		<rect x="80.6" y="88.1" class="st0" width="6.2" height="2.5"/>
	</g>
	<circle class="st1" cx="81.4" cy="81.3" r="78.9"/>
</g>
</svg>
