<?xml version="1.0" encoding="utf-8"?>
<!-- Generator: Adobe Illustrator 24.1.2, SVG Export Plug-In . SVG Version: 6.00 Build 0)  -->
<svg version="1.1" id="Layer_1" xmlns="http://www.w3.org/2000/svg" xmlns:xlink="http://www.w3.org/1999/xlink" x="0px" y="0px"
	 viewBox="0 0 163 163" style="enable-background:new 0 0 163 163;" xml:space="preserve">
<style type="text/css">
	.st0{fill:#FFFFFF;}
	.st1{fill:none;stroke:#FFFFFF;stroke-width:4;stroke-miterlimit:10;}
</style>
<g>
	<g>
		<path class="st0" d="M84.7,87.2v2.6H125v7.7h-83V95h-2.6v5.2h88.2V87.2H84.7z"/>
		<path class="st0" d="M41.9,89.8h40.2v-2.6H39.4v5.2h2.6V89.8z"/>
		<path class="st0" d="M56.9,63.7L55,62c-5.8,6.3-9.4,14.1-10.3,22.6l2.6,0.3C48.1,76.9,51.4,69.6,56.9,63.7z"/>
		<path class="st0" d="M58.7,62c6.8-6.3,15.6-9.8,24.8-9.8c18.7,0,34.2,14,36.1,32.6l2.6-0.3c-1-9.5-5.4-18.3-12.6-24.8
			c-5.7-5.2-12.9-8.6-20.4-9.7c0.5-0.9,0.7-1.9,0.7-3c0-3.6-2.9-6.5-6.5-6.5c-3.6,0-6.5,2.9-6.5,6.5c0,1.1,0.3,2.1,0.7,3
			c-7.8,1.1-15,4.6-20.8,10.1L58.7,62z M79.6,47c0-2.1,1.7-3.9,3.9-3.9c2.1,0,3.9,1.7,3.9,3.9c0,1-0.4,2-1.1,2.7
			c-0.9-0.1-1.9-0.1-2.8-0.1c-0.9,0-1.9,0-2.8,0.1C80,49,79.6,48,79.6,47z"/>
		<path class="st0" d="M78.3,56.1h2.6v2.6h-2.6V56.1z"/>
		<path class="st0" d="M111.1,78.3l2.4-1C111,71.1,107,65.8,102,62.1c-5.3-3.9-11.7-6-18.6-6v2.6C95.9,58.7,106.2,66,111.1,78.3z"/>
		<path class="st0" d="M50.3,82.1h2.6v2.6h-2.6V82.1z"/>
		<path class="st0" d="M55.5,82.1H58v2.6h-2.6V82.1z"/>
		<path class="st0" d="M60,107.9h-2.6v2.6h5.2v-7.7H60V107.9z"/>
		<path class="st0" d="M52.3,102.7h-2.6v7.7h5.2v-2.6h-2.6V102.7z"/>
		<path class="st0" d="M114.6,107.9H112v2.6h5.2v-7.7h-2.6V107.9z"/>
		<path class="st0" d="M106.9,102.7h-2.6v7.7h5.2v-2.6h-2.6V102.7z"/>
		<path class="st0" d="M114.1,92.4h7.7V95h-7.7V92.4z"/>
		<path class="st0" d="M108.9,92.4h2.6V95h-2.6V92.4z"/>
		<path class="st0" d="M84.7,68.4h2.6V71h-2.6V68.4z"/>
		<path class="st0" d="M79.6,68.4h2.6V71h-2.6V68.4z"/>
	</g>
	<circle class="st1" cx="81.6" cy="81.7" r="78.9"/>
</g>
</svg>
