<?xml version="1.0" encoding="utf-8"?>
<!-- Generator: Adobe Illustrator 24.1.2, SVG Export Plug-In . SVG Version: 6.00 Build 0)  -->
<svg version="1.1" id="Layer_1" xmlns="http://www.w3.org/2000/svg" xmlns:xlink="http://www.w3.org/1999/xlink" x="0px" y="0px"
	 viewBox="0 0 586.3 512.7" style="enable-background:new 0 0 586.3 512.7;" xml:space="preserve">
<style type="text/css">
	.st0{fill:#EECC7F;}
</style>
<path class="st0" d="M494.1,64.8c-21.7,102.3-43.5,204.6-65.2,306.9c-5.2,24.6-13.6,31.6-38.5,31.7c-99.6,0.2-199.2,0.2-298.8,0.1
	c-14.5,0-28.9-1.6-28.8-20.4c0.1-19.7,14.8-21,30.2-20.9c51.1,0.3,102.2,0.1,153.3,0.1h142.8c1.5-8.9,2.8-16.7,4.4-26.2h-23.7
	c-94.4,0-188.8,0-283.3,0c-28.1,0-36.5-6.9-42.3-34.5C30.9,239.6,17.9,177.7,4.9,115.8c-7.6-36.5,1.1-46.9,39-46.9
	c124.2,0,248.4,0,372.5,0c34.7,0,34.7,0,42.1-34.7c5.1-23.9,14.5-32,38.4-32.3C517.6,1.6,538.3,2,559,1.8
	c14.8-0.1,26.8,4.9,26.5,21.2s-12.7,20.7-27.3,20.6c-19.3-0.2-38.7,0-59.4,0C496.9,52.2,495.4,58.5,494.1,64.8z M188.7,111.4
	c1.1,20.5,1.4,40.3,3.6,59.9c0.5,4.1,7.4,10.7,11.5,10.8c28.8,0.9,57.7,0.5,87.9,0.5c2.6-24.5,5-47.2,7.5-71.2H188.7z M340.5,111.3
	c-2.2,23.6-4.4,46.4-6.7,70.4h93c5-23.1,10-46.1,15.2-70.4H340.5z M146.7,111.5H46.5c4.5,21.6,8.5,42.8,13.7,63.7
	c0.8,3.2,7.4,7,11.4,7.1c25.7,0.6,51.5,0.3,80,0.3C149.8,157.3,148.3,134.9,146.7,111.5L146.7,111.5z M195.5,224
	c1.5,23.8,2.9,46.5,4.4,70.3h80.3c2.5-22.6,5.1-45.3,7.9-70.4L195.5,224z M329.5,223.8c-2.4,23-4.8,45.8-7.3,70.3h81.1
	c4.8-22.8,9.6-45.3,14.9-70.3L329.5,223.8z M83.2,284.9c1.2,4.4,8.1,9.9,12.7,10.2c19.9,1.1,39.8,0.5,62,0.5
	c-1.2-24.5-2.4-47.2-3.6-71.2H70.3C74.7,245.9,78.1,265.6,83.2,284.9z"/>
<path class="st0" d="M132.6,512c23,0,42-18.9,41.7-41.7s-19.9-41.7-42.5-41.1c-22.1,0.6-40.4,18.9-40.8,41
	C90.7,492.8,109.6,511.9,132.6,512z"/>
<path class="st0" d="M314.2,470.5c-0.1,23.6,18,41.9,41.3,41.7c22.9-0.2,41.8-19.5,41.3-42.2c-0.6-22.3-18.5-40.3-40.9-40.9
	C333.2,428.5,314.3,447.2,314.2,470.5z"/>
</svg>
