<svg xmlns="http://www.w3.org/2000/svg" viewBox="0 0 267.44 409.64"><defs><style>.f3bd63ac-e815-4527-91cb-a8fd5d3e37cf{fill:#fff;}</style></defs><g id="fddd8258-049d-4e53-baa3-81d27bcd68c2" data-name="Layer 2"><g id="fd9e60fd-639a-40c7-b831-6b349f3e2189" data-name="Layer 1"><path class="f3bd63ac-e815-4527-91cb-a8fd5d3e37cf" d="M257,409.64H10.47c-8.36-3.4-11-9.72-10.4-18.45,1.41-22.47,2.35-45,3.48-67.46L8.89,217.55c1.49-29.53,2.93-59.08,4.54-88.61.62-11.38,5.35-15.66,16.68-15.68q20.6,0,41.19,0c2.25,0,3.62-.25,4-3,3.39-22.38,6.93-44.72,10.46-67.07,2.89-18.27,12.09-31.94,29.43-39.3,4.33-1.84,9.12-2.62,13.7-3.89h9.6c4.58,1.27,9.36,2.05,13.7,3.89,17.18,7.29,26.44,20.8,29.36,38.9,3.57,22.21,7.1,44.43,10.43,66.67.47,3.13,1.6,3.88,4.54,3.85q21-.19,42,0c9.78.06,14.91,4.82,15.41,14.47q2.89,55.88,5.62,111.76c2.55,50.43,5,100.86,7.8,151.28C267.86,399.64,265.55,406.16,257,409.64ZM195.44,126.47c-.21.59-.41.84-.37,1.06.54,3.69,1.11,7.37,1.67,11.06.72,4.79-1.27,8.2-5.19,8.9s-7-1.71-7.93-6.51c-.71-3.8-1.39-7.61-1.76-11.45-.23-2.37-1.1-3.11-3.48-3.11q-44.61.1-89.22,0c-2.28,0-3.34.54-3.56,3-.32,3.71-1,7.39-1.66,11.06-.87,5.1-3.93,7.81-7.89,7.08s-6.09-4.24-5.29-9.23c.6-3.8,1.19-7.6,1.81-11.55H26.74c-4.5,89.87-9,179.41-13.46,269.15H253.91c0-.87.12-1.4.1-1.92q-2.26-46.53-4.55-93.07-2.61-52.51-5.28-105-1.65-33.13-3.23-66.3c-.11-2.38-.85-3.31-3.3-3.19-3.59.17-7.2,0-10.8,0ZM88.29,113H178.7c.16-.48.34-.74.3-1-3.65-23.27-7-46.6-11.08-69.79-3.07-17.37-16.75-28.56-33.78-28.85-16.69-.29-30.56,10.45-34.22,27.69C97,54.86,95.22,68.89,93,82.82,91.39,92.77,89.89,102.73,88.29,113Z"/><path class="f3bd63ac-e815-4527-91cb-a8fd5d3e37cf" d="M105.79,247.2c-2.46-.54-4.69-.87-6.81-1.54-8.06-2.53-13.92-9.56-14.08-18-.31-16.92-.22-33.84-.15-50.77,0-4.28,2.93-7,6.65-6.94s6.35,2.91,6.38,7.25c.09,11.45,0,22.89,0,34.71h8V199.23c0-7.2-.08-14.39,0-21.59.07-4.67,2.63-7.55,6.46-7.69s6.81,2.84,6.87,7.68c.12,10,0,20,0,30v4.46h8V197.19c0-6.53,0-13.07,0-19.6.06-4.68,2.53-7.53,6.39-7.64s6.67,2.86,6.68,7.74c.06,15.73.1,31.45,0,47.18-.07,12.25-6.79,19.85-18.92,21.76a16.9,16.9,0,0,0-2.15.64v4.79q0,52.38,0,104.76a23.85,23.85,0,0,1-.53,5.53,6.39,6.39,0,0,1-12.33,0,21.47,21.47,0,0,1-.5-5.13q0-52.57,0-105.16Zm20.95-21.35H98.12c.75,5.07,2.79,7.4,7.27,7.64a127.92,127.92,0,0,0,14.39,0C124.24,233.2,126.36,230.62,126.74,225.85Z"/><path class="f3bd63ac-e815-4527-91cb-a8fd5d3e37cf" d="M168.76,317.8V348c0,3.47,0,6.93,0,10.4-.06,5.53-2.53,8.73-6.67,8.75s-6.69-3.22-6.69-8.71q0-55.4,0-110.8c0-20.8-.07-41.6,0-62.4.05-10.71,9.52-17.61,19-14a13.05,13.05,0,0,1,8.91,11.31c2.47,22.38,4.83,44.78,7.21,67.17,1.43,13.51,2.18,27.14,4.4,40.52,2.82,17-8.64,28.81-23.95,27.4A19.48,19.48,0,0,0,168.76,317.8Zm.31-13.75c10.84.92,13.59-1.65,12.62-12-1.18-12.47-2.63-24.9-3.94-37.35q-3.66-34.56-7.33-69.12a5.13,5.13,0,0,0-.74-1.53l-.61.16Z"/></g></g></svg>