<?xml version="1.0" encoding="utf-8"?>
<!-- Generator: Adobe Illustrator 24.1.2, SVG Export Plug-In . SVG Version: 6.00 Build 0)  -->
<svg version="1.1" id="Layer_1" xmlns="http://www.w3.org/2000/svg" xmlns:xlink="http://www.w3.org/1999/xlink" x="0px" y="0px"
	 viewBox="0 0 48.1 43.9" style="enable-background:new 0 0 48.1 43.9;" xml:space="preserve">
<g>
	<path d="M0.6,34.4c0.1-0.4,0.1-0.8,0.3-1.2c0.3-0.8,0.6-1.6,1-2.3c5-8.7,10-17.4,15-26c1.7-2.9,4.3-4.5,7.7-4.4
		c3,0.1,5.3,1.4,6.8,4c2.5,4.2,5,8.5,7.4,12.8c2.6,4.5,5.1,8.9,7.7,13.4c0.6,1.1,1.2,2.3,1.3,3.6c0,0.1,0,0.2,0.1,0.3
		c0,0.5,0,1,0,1.6c0,0.1-0.1,0.2-0.1,0.4c-0.6,4.2-4.1,7.3-8.4,7.3c-10.1,0-20.3,0-30.4,0c-3.8,0-7-2.4-8.1-6.1
		c-0.1-0.5-0.2-1-0.4-1.5C0.6,35.6,0.6,35,0.6,34.4z M24.2,39.9c5,0,9.9,0,14.9,0c0.4,0,0.9,0,1.3-0.1c3.1-0.7,4.6-4.1,3-6.9
		c-3.2-5.5-6.4-11.1-9.6-16.6C32,13,30.1,9.9,28.3,6.7c-1.1-1.8-2.8-2.7-4.8-2.3c-1.5,0.2-2.5,1.1-3.3,2.4
		c-2.2,3.8-4.3,7.5-6.5,11.3c-2.8,4.9-5.7,9.8-8.5,14.7c-0.6,1.1-0.9,2.2-0.6,3.5c0.5,2.2,2.3,3.6,4.7,3.6
		C14.2,39.9,19.2,39.9,24.2,39.9z"/>
	<path d="M26.7,16.7c-0.2,2.9-0.4,5.8-0.5,8.8c0,0.6,0,1.2-0.1,1.8c0,0.9-0.6,1.6-1.4,1.8c-0.8,0.2-1.6-0.1-2-0.7
		c-0.2-0.3-0.3-0.7-0.3-1c-0.2-2.8-0.3-5.6-0.5-8.5c0-0.8-0.1-1.5-0.2-2.3c-0.1-1.4,0.8-2.6,1.9-2.8c1.5-0.3,2.8,0.7,2.9,2.2
		C26.7,16.2,26.7,16.5,26.7,16.7z"/>
	<path d="M21.8,33.3c0-1.3,1.1-2.4,2.4-2.4c1.3,0,2.3,1.1,2.3,2.4c0,1.3-1.1,2.4-2.4,2.4C22.9,35.7,21.8,34.6,21.8,33.3z"/>
</g>
</svg>
