<?xml version="1.0" encoding="utf-8"?>
<!-- Generator: Adobe Illustrator 24.1.2, SVG Export Plug-In . SVG Version: 6.00 Build 0)  -->
<svg version="1.1" id="Layer_1" xmlns="http://www.w3.org/2000/svg" xmlns:xlink="http://www.w3.org/1999/xlink" x="0px" y="0px"
	 viewBox="0 0 206 144" style="enable-background:new 0 0 206 144;" xml:space="preserve">
<style type="text/css">
	.st0{fill:#EECC7F;}
</style>
<path class="st0" d="M101.9,142.5c-19.8-0.5-39.1-1-58.8-2c-6.1-0.5-11.7-1-17.8-2c-12.2-2-20.3-11.2-22.3-23.8
	C0.5,97.8,0,81.1,0.5,64.4c0.5-11.2,1-22.3,2-33.5C4.1,14.2,14.2,6.6,24.9,4.5c6.6-1.5,13.2-2,19.8-2C62.9,2,81.1,1,99.9,1
	c17.8,0,35.5,0.5,53.3,1c8.1,0.5,16.2,1,24.9,2c11.7,1,21.8,8.6,24.3,24.3c3,20.3,3.6,40.6,2.5,60.9c-0.5,8.6-1.5,17.2-2.5,25.4
	c-1.5,15.2-13.2,23.8-25.9,24.3c-16.7,1-34,2-50.7,2.5c-7.6,0.5-15.2,1-22.3,1L101.9,142.5z M82.7,102.9l51.2-31.4L82.7,40V102.9z"
	/>
</svg>
