<?xml version="1.0" standalone="no"?>
<!DOCTYPE svg PUBLIC "-//W3C//DTD SVG 20010904//EN"
 "http://www.w3.org/TR/2001/REC-SVG-20010904/DTD/svg10.dtd">
<svg version="1.0" xmlns="http://www.w3.org/2000/svg"
 width="240.000000pt" height="240.000000pt" viewBox="0 0 240.000000 240.000000"
 preserveAspectRatio="xMidYMid meet">
<metadata>
Created by potrace 1.14, written by Peter Selinger 2001-2017
</metadata>
<g transform="translate(0.000000,240.000000) scale(0.100000,-0.100000)"
fill="#000000" stroke="none">
<path d="M12 1988 c-14 -14 -17 -1554 -3 -1577 7 -11 103 -14 556 -14 484 0
550 2 560 16 6 9 10 50 10 97 -1 65 -5 85 -18 95 -13 9 -123 12 -457 11 l-440
-1 -1 25 c-1 36 -1 452 0 473 1 16 24 17 344 17 268 1 346 3 360 14 25 19 25
173 0 192 -14 11 -92 13 -360 14 -267 0 -343 3 -344 13 -1 15 -1 363 0 395 l1
22 444 0 c371 0 447 2 459 14 20 20 17 183 -3 196 -24 15 -1093 13 -1108 -2z"/>
<path d="M1177 1982 c-16 -17 -17 -86 -17 -789 0 -668 2 -772 15 -783 21 -17
369 -18 390 0 13 11 15 52 15 276 l0 264 173 0 c94 1 190 3 212 6 180 24 334
154 402 341 108 297 -80 636 -384 693 -33 6 -211 10 -423 10 -343 0 -368 -1
-383 -18z m687 -346 c100 -42 134 -170 71 -267 -38 -58 -73 -69 -224 -69
l-131 0 0 175 0 175 125 0 c85 0 137 -5 159 -14z"/>
</g>
</svg>
